<svg width="932" height="920" viewBox="0 0 932 920" fill="none" xmlns="http://www.w3.org/2000/svg">
<path fill-rule="evenodd" clip-rule="evenodd" d="M465.578 113.584C496.943 113.584 522.37 88.1576 522.37 56.7922C522.37 25.4267 496.943 0 465.578 0C434.212 0 408.785 25.4267 408.785 56.7922C408.785 88.1576 434.212 113.584 465.578 113.584ZM351.966 56.7922C351.966 119.54 402.83 170.405 465.578 170.405C528.326 170.405 579.19 119.54 579.19 56.7922H654.942C654.942 140.457 570.159 208.266 465.607 208.266C361.054 208.266 276.271 140.457 276.271 56.7922H351.966ZM465.578 265.058C329.623 265.058 219.423 197.249 219.423 113.584H124.74C124.74 228.623 277.333 321.878 465.578 321.878C653.822 321.878 806.415 228.623 806.415 113.584H711.734C711.734 197.249 601.532 265.058 465.578 265.058ZM121.218 710.028C152.584 710.028 178.01 684.601 178.01 653.236C178.01 621.871 152.584 596.444 121.218 596.444C89.8527 596.444 64.4258 621.871 64.4258 653.236C64.4258 684.601 89.8527 710.028 121.218 710.028ZM219.592 596.444C250.966 650.775 232.342 720.263 178.011 751.637L215.872 817.237C288.324 775.405 304.682 668.084 252.392 577.513C200.101 486.942 98.9884 447.431 26.5371 489.263L64.3987 554.863C118.73 523.489 188.217 542.112 219.592 596.444ZM293.496 838.013C365.947 796.181 369.582 666.826 301.605 549.103C233.628 431.38 119.793 369.834 47.3413 411.666L0 329.68C99.631 272.161 256.67 357.699 350.792 520.693C444.915 683.715 440.44 862.481 340.837 920L293.496 838.013ZM866.732 653.236C866.732 684.601 841.305 710.028 809.94 710.028C778.574 710.028 753.149 684.601 753.149 653.236C753.149 621.871 778.574 596.444 809.94 596.444C841.305 596.444 866.732 621.871 866.732 653.236ZM866.731 554.835C812.4 523.461 742.912 542.084 711.538 596.416C680.164 650.747 698.788 720.235 753.119 751.609L715.258 817.209C642.806 775.377 626.448 668.056 678.738 577.485C731.028 486.914 832.141 447.403 904.593 489.235L866.731 554.835ZM629.553 549.103C697.53 431.38 811.367 369.834 883.818 411.667L931.158 329.68C831.527 272.161 674.49 357.671 580.367 520.693C486.245 683.715 490.69 862.481 590.321 920L637.662 838.013C565.211 796.181 561.576 666.826 629.553 549.103Z" fill="#8A23DE"/>
</svg>
