<svg width="2104" height="395" viewBox="0 0 2104 395" fill="none" xmlns="http://www.w3.org/2000/svg">
<path fill-rule="evenodd" clip-rule="evenodd" d="M224.24 24.3999C224.24 37.8756 213.316 48.7998 199.84 48.7998C186.364 48.7998 175.44 37.8756 175.44 24.3999C175.44 10.9242 186.364 0 199.84 0C213.316 0 224.24 10.9242 224.24 24.3999ZM1035.72 291.16L965.8 203.56L942.48 223.68V291.12H896.56V49.92H942.48V190.48L1028.28 118.08H1064.68L993.68 179.16L1082.32 291.12H1035.72V291.16ZM711.202 283.76C695.322 276.48 683.082 266.04 674.482 252.52C665.882 239 661.602 223.04 661.602 204.68C661.602 186.32 665.882 170.36 674.482 156.84C683.082 143.32 695.322 132.88 711.202 125.6C727.082 118.32 745.762 114.64 767.162 114.64C788.562 114.64 807.242 118.28 823.122 125.6C839.002 132.88 851.202 143.32 859.682 156.84C868.162 170.4 872.402 186.32 872.402 204.68C872.402 223.04 868.162 239 859.682 252.52C851.202 266.08 839.002 276.48 823.122 283.76C807.242 291.08 788.562 294.72 767.162 294.72C745.762 294.72 727.082 291.08 711.202 283.76ZM810.602 258.16C821.202 245.08 826.482 227.24 826.482 204.68C826.482 182.12 821.202 164.24 810.602 151.16C800.002 138.08 785.522 131.56 767.162 131.56C748.802 131.56 734.322 138.08 723.722 151.16C713.122 164.24 707.842 182.08 707.842 204.68C707.842 227.28 713.122 245.12 723.722 258.16C734.322 271.24 748.802 277.76 767.162 277.76C785.522 277.76 800.002 271.24 810.602 258.16ZM1083.4 241.36C1083.4 258.56 1089.52 271.72 1101.76 280.92H1101.8C1114.04 290.08 1132.4 294.68 1156.88 294.68C1170.28 294.68 1182.52 292.32 1193.6 287.6C1204.68 282.92 1213.6 275.48 1220.44 265.36C1221.4 273.64 1223.04 282.2 1225.4 291.16H1268.12C1264.6 273.76 1262.84 254.68 1262.84 233.96V177.44C1262.84 157.2 1255.36 141.68 1240.4 130.84C1225.44 120 1203.96 114.6 1175.96 114.6C1150.32 114.6 1129.96 119.56 1114.88 129.44C1099.8 139.32 1091 153.56 1088.4 172.16H1123C1124.88 158.96 1130 148.92 1138.36 141.96C1146.72 135.04 1157.48 131.56 1172.08 131.56C1186.68 131.56 1197.88 135.12 1205.64 142.32C1213.4 149.48 1217.28 159.92 1217.28 173.56V185.56H1169.24C1141.44 185.56 1120.2 190.4 1105.48 200.04C1090.76 209.68 1083.4 224.16 1083.4 241.36ZM1217.24 230.76C1217.24 244.88 1212.72 256.36 1203.64 265.2C1194.56 274.04 1182.4 278.44 1167.08 278.44C1154.6 278.44 1145.12 275.28 1138.64 268.92C1132.16 262.56 1128.92 253.52 1128.92 241.04C1128.92 228.56 1133.4 219.08 1142.36 212.6C1151.32 206.12 1164.48 202.88 1181.92 202.88H1217.24V230.76ZM1405.32 271.2C1387.08 255.56 1377.96 233.36 1377.96 204.64C1377.96 175.92 1387.08 153.72 1405.32 138.08C1423.56 122.44 1449.04 114.6 1481.76 114.6C1509.32 114.6 1531.32 119.8 1547.8 130.12C1564.28 140.48 1574.04 155.2 1577.12 174.28H1542.52C1539.68 160.64 1533.28 150.08 1523.28 142.68C1513.28 135.28 1500.72 131.56 1485.68 131.56C1465.88 131.56 1450.64 137.92 1439.96 150.64C1429.24 163.36 1423.88 181.36 1423.88 204.68C1423.88 228 1429.24 246 1439.96 258.72C1450.68 271.44 1465.92 277.8 1485.68 277.8C1500.28 277.8 1512.68 274.04 1522.92 266.52C1533.16 259 1539.68 248.52 1542.52 235.08H1577.12C1574.04 254.16 1564.24 268.88 1547.64 279.24C1531.04 289.6 1509.08 294.76 1481.76 294.76C1449.04 294.76 1423.56 286.92 1405.32 271.28V271.2ZM1650.76 49.96H1605.2V291.16H1650.76V49.96ZM1705.08 276.88C1691.88 265 1685.32 248.68 1685.32 227.96V118.12H1730.88V231.48C1730.88 246.56 1734.36 258.04 1741.28 265.92C1748.24 273.8 1758.4 277.76 1771.84 277.76C1787.6 277.76 1800.16 272.24 1809.44 261.16C1818.72 250.08 1823.4 235.16 1823.4 216.32V118.16H1868.96V291.2H1823.4V261.88C1818 272 1809.56 280 1798.16 285.88C1786.72 291.76 1773.84 294.72 1759.48 294.72C1736.4 294.72 1718.28 288.76 1705.08 276.88ZM1947.6 291.16V262.56C1960.52 283.96 1981.6 294.68 2010.8 294.68C2028.68 294.68 2044.64 290.8 2058.64 283.04C2072.64 275.28 2083.6 264.44 2091.48 250.56C2099.36 236.68 2103.32 221.12 2103.32 203.24C2103.32 185.36 2099.72 169.76 2092.56 156.44C2085.36 143.16 2075.04 132.88 2061.64 125.56C2048.24 118.24 2032.56 114.6 2014.68 114.6C1999.36 114.6 1985.88 117.6 1974.24 123.6C1962.6 129.6 1953.72 138 1947.6 148.84V49.96H1901.68V291.16H1947.6ZM2057.76 203.24C2057.76 226.08 2052.88 244.28 2043.12 257.8L2043.08 257.76C2033.32 271.32 2019.96 278.08 2003 278.08C1986.04 278.08 1972.56 271.44 1962.56 258.12C1952.56 244.84 1947.56 227.24 1947.56 204.64C1947.56 182.04 1952.68 164.04 1962.92 150.6C1973.16 137.2 1987.12 130.48 2004.08 130.48C2021.04 130.48 2034.24 136.84 2043.64 149.56C2053.04 162.28 2057.76 180.4 2057.76 203.24ZM667.68 118.12L598.08 261.6L597.68 262.44C576.84 299.92 550.64 322.72 524.4 334.6C524.309 334.661 524.241 334.675 524.144 334.696C524.113 334.703 524.079 334.71 524.04 334.72C519.28 336.84 514.52 338.64 509.76 340.12C493.48 345.08 477.6 346.04 463.4 343.84H463.32L479.72 310.08C502.64 314 535.52 300.88 547.76 283.76C546.72 278.8 460.72 118.12 460.72 118.12H508.72L576.52 250.16L640.12 118.12H667.64H667.68ZM151.08 24.3999C151.08 51.3199 172.92 73.1599 199.84 73.1599C226.76 73.1599 248.6 51.3199 248.6 24.3999H281.12C281.12 60.3199 244.72 89.4399 199.84 89.4399C154.96 89.4399 118.56 60.3199 118.56 24.3999H151.08ZM199.88 113.8C141.52 113.8 94.2001 84.68 94.2001 48.76H53.5601C53.5601 98.12 119.08 138.16 199.88 138.16C280.68 138.16 346.2 98.12 346.2 48.76H305.56C305.56 84.68 258.24 113.8 199.88 113.8ZM52.0399 304.84C65.5157 304.84 76.4399 293.916 76.4399 280.44C76.4399 266.964 65.5157 256.04 52.0399 256.04C38.5642 256.04 27.6399 266.964 27.6399 280.44C27.6399 293.916 38.5642 304.84 52.0399 304.84ZM94.2401 256.08C107.72 279.4 99.7201 309.2 76.4001 322.68L76.4402 322.72L92.6802 350.88C123.8 332.92 130.8 286.84 108.36 247.96C85.9201 209.08 42.5201 192.12 11.4001 210.08L27.6401 238.24C50.9601 224.76 80.7601 232.76 94.2401 256.08ZM126 359.76L126.017 359.75L146.32 394.92C189.08 370.24 191 293.48 150.6 223.52C110.2 153.56 42.76 116.84 0 141.52L20.3201 176.72C51.4401 158.76 100.32 185.2 129.48 235.72C158.635 286.27 157.121 341.779 126.017 359.75L126 359.72V359.76ZM372.08 280.44C372.08 293.916 361.156 304.84 347.68 304.84C334.204 304.84 323.28 293.916 323.28 280.44C323.28 266.964 334.204 256.04 347.68 256.04C361.156 256.04 372.08 266.964 372.08 280.44ZM372.08 238.2C348.76 224.72 318.92 232.72 305.48 256.04C292.04 279.36 300 309.2 323.32 322.64L307.08 350.8C275.96 332.84 268.96 286.76 291.4 247.88C313.84 209 357.24 192.04 388.36 210L372.12 238.16L372.08 238.2ZM270.24 235.72C299.44 185.16 348.28 158.76 379.4 176.72V176.76L399.72 141.56C356.96 116.88 289.52 153.6 249.12 223.56C208.72 293.52 210.64 370.28 253.4 394.96L273.72 359.76C242.6 341.8 241.04 286.28 270.24 235.72Z" fill="#8A23DE"/>
</svg>
