<?xml version="1.0" standalone="no"?>
<!DOCTYPE svg PUBLIC "-//W3C//DTD SVG 20010904//EN"
 "http://www.w3.org/TR/2001/REC-SVG-20010904/DTD/svg10.dtd">
<svg version="1.0" xmlns="http://www.w3.org/2000/svg"
 width="1600.000000pt" height="1600.000000pt" viewBox="0 0 1600.000000 1600.000000"
 preserveAspectRatio="xMidYMid meet">
<metadata>
Created by potrace 1.14, written by Peter Selinger 2001-2017
</metadata>
<g transform="translate(0.000000,1600.000000) scale(0.100000,-0.100000)"
fill="#000000" stroke="none">
<path d="M10048 15164 c-2 -1 -61 -5 -133 -9 -71 -4 -143 -8 -160 -10 -16 -2
-73 -7 -125 -10 -52 -3 -102 -8 -110 -10 -8 -2 -46 -6 -85 -10 -38 -3 -81 -8
-95 -10 -14 -2 -45 -6 -70 -10 -75 -11 -93 -14 -140 -20 -60 -8 -97 -14 -145
-24 -22 -5 -47 -9 -55 -9 -19 0 -210 -39 -215 -43 -1 -2 8 -53 21 -114 13 -60
25 -121 28 -135 2 -14 16 -79 30 -145 14 -66 39 -185 56 -265 17 -80 35 -170
41 -200 6 -30 17 -80 24 -110 8 -30 17 -71 20 -90 3 -19 15 -73 25 -120 10
-47 21 -96 23 -110 3 -14 15 -72 27 -130 12 -58 23 -112 25 -120 29 -151 70
-328 74 -326 3 2 22 7 41 10 19 3 49 8 65 11 227 42 345 59 565 81 309 30 882
35 1140 9 19 -2 73 -6 120 -10 47 -3 96 -8 110 -10 14 -2 54 -7 90 -11 36 -3
72 -7 80 -9 9 -2 43 -6 75 -10 33 -4 69 -9 80 -11 11 -2 40 -7 65 -10 25 -3
54 -8 65 -10 11 -2 47 -9 80 -14 49 -9 238 -46 330 -64 66 -14 218 -51 335
-81 225 -59 253 -71 216 -92 -12 -7 -80 -67 -240 -214 -77 -70 -98 -89 -172
-154 -37 -33 -75 -67 -83 -76 -9 -8 -77 -69 -151 -135 -74 -65 -140 -123 -146
-129 -6 -5 -48 -44 -94 -85 -46 -41 -91 -82 -100 -90 -9 -8 -52 -46 -96 -85
-43 -38 -84 -74 -90 -80 -6 -5 -44 -39 -85 -75 -40 -36 -83 -74 -95 -85 -12
-11 -48 -42 -80 -70 -31 -27 -62 -54 -68 -60 -6 -5 -65 -57 -131 -115 -66 -58
-125 -109 -131 -115 -6 -5 -56 -48 -110 -95 -54 -47 -131 -117 -171 -156 -244
-243 -335 -602 -238 -938 101 -347 395 -610 755 -671 314 -54 747 -180 978
-286 34 -16 65 -29 68 -29 10 0 258 -126 344 -175 433 -245 807 -581 1091
-980 35 -49 69 -97 74 -107 132 -222 172 -297 230 -433 25 -60 50 -119 55
-130 35 -80 117 -352 139 -465 19 -96 21 -104 26 -135 3 -16 7 -41 10 -55 40
-225 51 -699 20 -930 -2 -19 -7 -55 -10 -80 -8 -62 -23 -149 -44 -260 -29
-144 -113 -420 -162 -527 -10 -23 -19 -45 -19 -48 0 -23 -210 -415 -252 -470
-4 -5 -42 -57 -84 -115 -184 -251 -395 -468 -644 -661 -94 -74 -310 -222 -380
-261 -25 -14 -72 -41 -105 -60 -60 -34 -245 -126 -340 -168 -202 -91 -569
-213 -765 -255 -8 -2 -36 -8 -63 -14 -26 -6 -64 -14 -85 -17 -20 -3 -40 -8
-43 -9 -3 -2 -28 -7 -55 -10 -27 -4 -56 -8 -64 -10 -8 -2 -37 -7 -65 -11 -27
-3 -57 -7 -65 -9 -8 -2 -46 -6 -85 -10 -38 -4 -81 -8 -94 -10 -39 -7 -288 -18
-386 -18 -83 0 -333 11 -415 18 -130 11 -187 17 -200 20 -8 2 -37 6 -65 10
-27 3 -62 8 -77 10 -16 3 -43 7 -60 10 -18 3 -78 14 -133 25 -55 11 -110 22
-122 24 -82 16 -442 121 -498 146 -11 5 -74 30 -140 56 -175 68 -412 185 -590
292 -124 74 -394 262 -441 307 -6 5 -28 24 -49 40 -216 170 -495 459 -709 735
-53 69 -101 131 -107 138 -67 81 -318 482 -410 654 -55 104 -219 436 -219 444
0 3 -14 35 -30 71 -17 36 -58 135 -91 221 -34 87 -68 171 -75 189 -8 17 -14
36 -14 42 0 6 -4 19 -10 29 -10 18 -101 293 -138 417 -32 107 -72 250 -76 272
-3 15 17 32 102 83 301 180 579 381 807 583 98 88 305 293 371 367 134 152
168 193 244 290 100 128 285 406 370 555 294 517 515 1178 575 1725 3 30 9 75
12 100 3 25 7 61 9 80 13 107 12 597 -1 730 -15 156 -23 231 -31 270 -2 14 -6
36 -9 50 -20 123 -31 173 -61 293 -147 590 -416 1077 -813 1476 -97 97 -177
169 -249 225 -15 11 -33 26 -40 33 -7 7 -17 13 -20 13 -4 0 -18 10 -32 23 -24
22 -178 127 -186 127 -2 0 -27 15 -56 33 -196 125 -522 257 -788 320 -165 40
-227 50 -415 72 -119 14 -458 20 -580 10 -71 -5 -179 -16 -205 -20 -14 -2 -45
-6 -70 -10 -82 -12 -113 -17 -190 -30 -16 -3 -60 -12 -97 -20 -37 -9 -79 -18
-93 -21 -14 -3 -43 -10 -65 -16 -22 -5 -48 -12 -59 -14 -61 -11 -401 -121
-516 -166 -287 -112 -582 -287 -867 -516 -166 -132 -240 -199 -419 -377 -378
-377 -714 -813 -1026 -1330 -27 -44 -52 -87 -58 -95 -5 -8 -18 -31 -28 -50
-11 -19 -47 -84 -81 -145 -86 -152 -256 -501 -331 -675 -34 -80 -68 -158 -75
-175 -91 -210 -303 -848 -350 -1054 -2 -9 -26 -112 -54 -229 -27 -117 -52
-229 -56 -250 -3 -20 -12 -71 -20 -112 -8 -41 -16 -86 -19 -100 -2 -14 -7 -41
-10 -60 -12 -70 -16 -97 -35 -235 -20 -142 -29 -218 -36 -290 -2 -22 -6 -71
-10 -110 -3 -38 -8 -87 -10 -108 -14 -129 -20 -341 -20 -692 1 -471 9 -624 51
-1010 3 -27 7 -61 9 -75 2 -14 6 -50 10 -81 3 -31 7 -66 9 -76 3 -11 7 -44 11
-74 3 -30 8 -61 10 -69 2 -8 6 -37 10 -65 3 -27 10 -68 15 -90 5 -22 11 -56
14 -76 5 -33 54 -287 61 -319 2 -8 11 -49 20 -90 9 -41 23 -102 32 -135 8 -33
17 -71 20 -84 2 -13 17 -74 33 -135 260 -975 636 -1878 1165 -2796 21 -36 46
-80 57 -99 11 -19 34 -58 51 -86 18 -28 37 -60 44 -71 36 -59 164 -262 176
-278 13 -18 28 -9 273 149 302 196 427 278 731 475 122 80 230 150 240 155 10
6 65 41 123 79 58 38 135 89 173 113 37 24 67 46 67 48 0 3 -38 65 -83 138
-80 126 -219 359 -284 477 -17 30 -41 73 -53 95 -138 246 -293 564 -416 850
-36 83 -69 159 -74 170 -58 127 -281 771 -297 854 -2 14 -6 28 -9 33 -3 4 -7
16 -9 25 -1 10 -20 80 -40 157 -30 108 -35 140 -25 146 11 7 88 21 187 35 12
2 34 6 50 9 15 4 42 9 58 12 17 3 86 16 155 30 69 14 139 27 155 30 17 3 48
10 70 16 22 5 49 12 60 14 29 5 106 22 132 28 10 3 83 21 163 41 80 20 162 41
183 46 48 12 351 100 435 127 34 11 64 17 66 13 2 -3 20 -60 41 -126 377
-1224 969 -2293 1733 -3129 112 -123 421 -424 523 -511 560 -475 991 -745
1654 -1036 65 -28 131 -56 135 -57 5 -1 19 -6 130 -47 137 -51 361 -122 505
-160 74 -20 296 -73 325 -79 14 -2 70 -13 125 -25 55 -11 118 -22 140 -26 23
-3 50 -7 60 -9 48 -9 139 -22 214 -31 30 -4 61 -8 70 -10 9 -1 54 -6 101 -10
47 -3 99 -8 115 -10 85 -12 289 -19 540 -19 295 0 442 7 655 30 30 3 71 7 90
9 71 6 292 40 452 70 99 19 276 59 393 90 77 20 147 38 155 40 79 18 488 155
522 175 10 5 22 10 27 10 18 0 332 137 471 204 259 127 468 246 700 400 100
66 329 232 340 246 3 3 23 19 45 36 42 31 45 33 170 140 193 164 500 487 667
700 122 156 166 216 249 344 242 370 424 748 564 1175 48 144 126 434 139 510
2 17 12 64 21 105 8 41 18 93 21 115 2 22 6 51 9 65 11 76 18 117 20 132 2 9
7 48 10 85 4 37 8 79 11 93 26 162 25 974 -1 1080 -2 8 -6 49 -10 90 -8 94
-21 188 -41 290 -2 14 -7 41 -10 60 -15 89 -63 295 -109 465 -34 127 -134 421
-168 496 -9 19 -28 63 -42 99 -37 92 -49 117 -132 285 -333 668 -806 1243
-1418 1726 -66 52 -131 102 -145 111 -14 10 -45 32 -70 49 -206 147 -474 308
-719 434 l-35 18 25 19 c13 11 44 39 69 61 25 23 83 76 130 117 46 41 94 84
106 95 11 11 56 52 99 90 43 39 86 77 95 85 8 8 78 71 155 140 77 69 163 146
190 171 28 26 70 64 94 85 24 22 56 50 70 64 14 14 96 88 181 165 85 77 162
147 170 155 9 8 65 60 124 115 60 55 123 113 140 129 176 162 317 302 357 356
51 67 114 188 144 275 40 118 58 310 40 430 -37 246 -169 474 -359 619 -166
128 -655 372 -1071 536 -289 115 -855 298 -1005 326 -14 2 -36 9 -50 14 -14 5
-54 15 -90 24 -36 8 -103 24 -150 35 -47 11 -101 23 -120 26 -19 3 -51 10 -70
15 -45 13 -293 60 -345 66 -22 3 -47 7 -56 10 -9 2 -34 7 -55 9 -22 3 -50 7
-64 10 -45 9 -131 21 -210 30 -25 3 -54 7 -65 9 -11 2 -51 7 -90 11 -38 4 -81
8 -95 10 -24 4 -88 10 -212 20 -32 3 -84 7 -115 10 -134 13 -268 17 -620 19
-205 2 -374 2 -375 0z m-4808 -2709 c232 -34 421 -125 569 -274 80 -80 94 -98
147 -181 64 -99 153 -301 169 -380 2 -8 8 -33 13 -55 6 -22 13 -52 16 -68 3
-15 7 -35 10 -45 6 -20 15 -89 25 -192 9 -80 6 -398 -3 -465 -3 -22 -8 -60
-11 -85 -3 -25 -8 -52 -10 -60 -2 -8 -6 -33 -10 -55 -29 -201 -125 -485 -245
-726 -255 -511 -645 -918 -1192 -1244 -204 -121 -317 -184 -493 -274 -158 -81
-439 -210 -531 -244 -21 -8 -73 -29 -115 -45 -150 -60 -512 -179 -659 -217 -8
-3 -58 -16 -110 -30 -52 -14 -108 -27 -124 -30 -16 -3 -37 -10 -47 -16 -11 -5
-19 -8 -19 -5 0 2 -16 0 -36 -6 -20 -5 -45 -12 -55 -14 -30 -6 -103 -22 -134
-28 -11 -3 -52 -11 -90 -20 -78 -16 -92 -19 -215 -42 -97 -18 -136 -24 -165
-27 -18 -2 -20 4 -19 63 1 75 12 274 19 340 2 25 7 72 10 104 6 77 32 276 51
396 12 80 25 148 59 320 3 14 7 36 10 50 2 14 25 106 50 205 25 99 48 187 50
195 6 25 45 149 85 275 138 425 349 888 577 1270 307 513 640 912 1024 1230
53 44 167 119 245 161 173 94 546 199 778 220 39 3 73 8 75 10 6 6 248 -3 301
-11z"/>
<path d="M10069 8210 c-65 -18 -121 -65 -146 -120 -56 -123 -138 -287 -178
-355 -170 -287 -405 -555 -665 -756 -191 -148 -359 -248 -610 -362 -84 -38
-133 -85 -149 -144 -34 -122 15 -220 138 -274 405 -180 707 -398 997 -720 62
-69 238 -307 257 -349 4 -8 18 -33 32 -55 35 -55 127 -238 156 -308 45 -112
117 -167 221 -170 81 -2 161 53 197 135 105 239 254 490 397 668 93 116 298
320 414 412 178 142 398 276 589 359 121 53 145 69 178 126 63 108 21 249 -90
302 -330 155 -482 244 -672 396 -247 197 -498 487 -643 742 -83 147 -97 174
-141 272 -23 52 -53 110 -68 129 -42 56 -147 91 -214 72z"/>
</g>
</svg>
